<mxfile host="www.draw.io" modified="2020-02-16T12:20:29.751Z" agent="Mozilla/5.0 (Windows NT 10.0; Win64; x64) AppleWebKit/537.36 (KHTML, like Gecko) Chrome/76.0.3809.132 Safari/537.36" etag="G1yn8JDklVakhXUfI4AN" version="12.7.0" type="github">
  <diagram id="FHmcyvShyBVJTWuVOiJX" name="Page-1">
    <mxGraphModel dx="1406" dy="788" grid="1" gridSize="10" guides="1" tooltips="1" connect="1" arrows="1" fold="1" page="1" pageScale="1" pageWidth="827" pageHeight="1169" math="0" shadow="0">
      <root>
        <mxCell id="0"/>
        <mxCell id="1" parent="0"/>
        <mxCell id="ubV-QA2QoW2X3zsCJkII-1" value="" style="ellipse;whiteSpace=wrap;html=1;aspect=fixed;fillColor=#66B2FF;" parent="1" vertex="1">
          <mxGeometry x="190" y="410" width="40" height="40" as="geometry"/>
        </mxCell>
        <mxCell id="ubV-QA2QoW2X3zsCJkII-2" value="" style="ellipse;whiteSpace=wrap;html=1;aspect=fixed;fillColor=#000000;" parent="1" vertex="1">
          <mxGeometry x="110" y="490" width="40" height="40" as="geometry"/>
        </mxCell>
        <mxCell id="ubV-QA2QoW2X3zsCJkII-3" value="7" style="ellipse;whiteSpace=wrap;html=1;aspect=fixed;fillColor=#66B2FF;fontColor=#FFFFFF;" parent="1" vertex="1">
          <mxGeometry x="380" y="490" width="40" height="40" as="geometry"/>
        </mxCell>
        <mxCell id="ubV-QA2QoW2X3zsCJkII-4" value="" style="ellipse;whiteSpace=wrap;html=1;aspect=fixed;fillColor=#66B2FF;" parent="1" vertex="1">
          <mxGeometry x="190" y="570" width="40" height="40" as="geometry"/>
        </mxCell>
        <mxCell id="ubV-QA2QoW2X3zsCJkII-5" value="" style="endArrow=none;html=1;exitX=0;exitY=1;exitDx=0;exitDy=0;entryX=1;entryY=0;entryDx=0;entryDy=0;" parent="1" source="ubV-QA2QoW2X3zsCJkII-1" target="ubV-QA2QoW2X3zsCJkII-2" edge="1">
          <mxGeometry width="50" height="50" relative="1" as="geometry">
            <mxPoint x="50" y="810" as="sourcePoint"/>
            <mxPoint x="100" y="760" as="targetPoint"/>
          </mxGeometry>
        </mxCell>
        <mxCell id="ubV-QA2QoW2X3zsCJkII-6" value="" style="endArrow=none;html=1;exitX=1;exitY=1;exitDx=0;exitDy=0;entryX=0;entryY=0;entryDx=0;entryDy=0;" parent="1" source="ubV-QA2QoW2X3zsCJkII-2" target="ubV-QA2QoW2X3zsCJkII-4" edge="1">
          <mxGeometry width="50" height="50" relative="1" as="geometry">
            <mxPoint x="160" y="680" as="sourcePoint"/>
            <mxPoint x="180" y="810" as="targetPoint"/>
          </mxGeometry>
        </mxCell>
        <mxCell id="ubV-QA2QoW2X3zsCJkII-9" value="1" style="text;html=1;strokeColor=none;fillColor=none;align=center;verticalAlign=middle;whiteSpace=wrap;rounded=0;fontColor=#FFFFFF;" parent="1" vertex="1">
          <mxGeometry x="115" y="500" width="30" height="20" as="geometry"/>
        </mxCell>
        <mxCell id="ubV-QA2QoW2X3zsCJkII-10" value="2" style="text;html=1;strokeColor=none;fillColor=none;align=center;verticalAlign=middle;whiteSpace=wrap;rounded=0;fontColor=#FFFFFF;" parent="1" vertex="1">
          <mxGeometry x="200" y="425" width="20" height="10" as="geometry"/>
        </mxCell>
        <mxCell id="ubV-QA2QoW2X3zsCJkII-11" value="4" style="text;html=1;strokeColor=none;fillColor=none;align=center;verticalAlign=middle;whiteSpace=wrap;rounded=0;fontColor=#FFFFFF;" parent="1" vertex="1">
          <mxGeometry x="190" y="580" width="40" height="20" as="geometry"/>
        </mxCell>
        <mxCell id="ubV-QA2QoW2X3zsCJkII-15" value="&lt;font color=&quot;#ffffff&quot;&gt;3&lt;/font&gt;" style="ellipse;whiteSpace=wrap;html=1;aspect=fixed;fillColor=#66B2FF;" parent="1" vertex="1">
          <mxGeometry x="210" y="490" width="40" height="40" as="geometry"/>
        </mxCell>
        <mxCell id="ubV-QA2QoW2X3zsCJkII-16" value="5" style="ellipse;whiteSpace=wrap;html=1;aspect=fixed;fillColor=#66B2FF;fontColor=#FFFFFF;" parent="1" vertex="1">
          <mxGeometry x="290" y="450" width="40" height="40" as="geometry"/>
        </mxCell>
        <mxCell id="ubV-QA2QoW2X3zsCJkII-22" value="6" style="ellipse;whiteSpace=wrap;html=1;aspect=fixed;fillColor=#66B2FF;fontColor=#FFFFFF;" parent="1" vertex="1">
          <mxGeometry x="290" y="530" width="40" height="40" as="geometry"/>
        </mxCell>
        <mxCell id="ubV-QA2QoW2X3zsCJkII-25" value="" style="endArrow=none;html=1;exitX=1;exitY=0.25;exitDx=0;exitDy=0;entryX=0;entryY=1;entryDx=0;entryDy=0;" parent="1" source="ubV-QA2QoW2X3zsCJkII-11" target="ubV-QA2QoW2X3zsCJkII-22" edge="1">
          <mxGeometry width="50" height="50" relative="1" as="geometry">
            <mxPoint x="130" y="730" as="sourcePoint"/>
            <mxPoint x="180" y="680" as="targetPoint"/>
          </mxGeometry>
        </mxCell>
        <mxCell id="ubV-QA2QoW2X3zsCJkII-28" value="" style="endArrow=none;html=1;exitX=0.975;exitY=0.675;exitDx=0;exitDy=0;entryX=0.025;entryY=0.325;entryDx=0;entryDy=0;entryPerimeter=0;exitPerimeter=0;" parent="1" source="ubV-QA2QoW2X3zsCJkII-16" target="ubV-QA2QoW2X3zsCJkII-3" edge="1">
          <mxGeometry width="50" height="50" relative="1" as="geometry">
            <mxPoint x="110" y="690" as="sourcePoint"/>
            <mxPoint x="160" y="640" as="targetPoint"/>
          </mxGeometry>
        </mxCell>
        <mxCell id="ubV-QA2QoW2X3zsCJkII-29" value="" style="endArrow=none;html=1;exitX=0;exitY=1;exitDx=0;exitDy=0;entryX=1;entryY=0.5;entryDx=0;entryDy=0;" parent="1" source="ubV-QA2QoW2X3zsCJkII-3" target="ubV-QA2QoW2X3zsCJkII-22" edge="1">
          <mxGeometry width="50" height="50" relative="1" as="geometry">
            <mxPoint x="80" y="720" as="sourcePoint"/>
            <mxPoint x="130" y="670" as="targetPoint"/>
          </mxGeometry>
        </mxCell>
        <mxCell id="ubV-QA2QoW2X3zsCJkII-31" value="" style="endArrow=none;html=1;exitX=0;exitY=1;exitDx=0;exitDy=0;entryX=1;entryY=0.5;entryDx=0;entryDy=0;" parent="1" source="ubV-QA2QoW2X3zsCJkII-16" target="ubV-QA2QoW2X3zsCJkII-15" edge="1">
          <mxGeometry width="50" height="50" relative="1" as="geometry">
            <mxPoint x="160" y="710" as="sourcePoint"/>
            <mxPoint x="210" y="660" as="targetPoint"/>
          </mxGeometry>
        </mxCell>
        <mxCell id="ubV-QA2QoW2X3zsCJkII-32" value="" style="endArrow=none;html=1;entryX=0.05;entryY=0.35;entryDx=0;entryDy=0;entryPerimeter=0;" parent="1" target="ubV-QA2QoW2X3zsCJkII-22" edge="1">
          <mxGeometry width="50" height="50" relative="1" as="geometry">
            <mxPoint x="250" y="518" as="sourcePoint"/>
            <mxPoint x="220" y="670" as="targetPoint"/>
          </mxGeometry>
        </mxCell>
        <mxCell id="ubV-QA2QoW2X3zsCJkII-33" value="" style="endArrow=none;html=1;exitX=1;exitY=0.5;exitDx=0;exitDy=0;entryX=0;entryY=0.5;entryDx=0;entryDy=0;" parent="1" source="ubV-QA2QoW2X3zsCJkII-2" target="ubV-QA2QoW2X3zsCJkII-15" edge="1">
          <mxGeometry width="50" height="50" relative="1" as="geometry">
            <mxPoint x="50" y="700" as="sourcePoint"/>
            <mxPoint x="100" y="650" as="targetPoint"/>
          </mxGeometry>
        </mxCell>
        <mxCell id="ubV-QA2QoW2X3zsCJkII-34" value="" style="endArrow=none;html=1;entryX=0.025;entryY=0.325;entryDx=0;entryDy=0;entryPerimeter=0;exitX=0.95;exitY=0.675;exitDx=0;exitDy=0;exitPerimeter=0;" parent="1" source="ubV-QA2QoW2X3zsCJkII-1" target="ubV-QA2QoW2X3zsCJkII-16" edge="1">
          <mxGeometry width="50" height="50" relative="1" as="geometry">
            <mxPoint x="230" y="440" as="sourcePoint"/>
            <mxPoint x="100" y="650" as="targetPoint"/>
          </mxGeometry>
        </mxCell>
        <mxCell id="ubV-QA2QoW2X3zsCJkII-49" value="" style="rounded=1;whiteSpace=wrap;html=1;fillColor=#66B2FF;" parent="1" vertex="1">
          <mxGeometry x="580" y="415" width="50" height="190" as="geometry"/>
        </mxCell>
        <mxCell id="ubV-QA2QoW2X3zsCJkII-50" value="" style="endArrow=none;html=1;exitX=1;exitY=0.5;exitDx=0;exitDy=0;entryX=0;entryY=0.5;entryDx=0;entryDy=0;" parent="1" source="ubV-QA2QoW2X3zsCJkII-49" target="ubV-QA2QoW2X3zsCJkII-49" edge="1">
          <mxGeometry width="50" height="50" relative="1" as="geometry">
            <mxPoint x="490" y="632" as="sourcePoint"/>
            <mxPoint x="580" y="577" as="targetPoint"/>
          </mxGeometry>
        </mxCell>
        <mxCell id="ubV-QA2QoW2X3zsCJkII-51" value="" style="endArrow=none;html=1;exitX=1;exitY=0.25;exitDx=0;exitDy=0;entryX=0;entryY=0.25;entryDx=0;entryDy=0;" parent="1" source="ubV-QA2QoW2X3zsCJkII-49" target="ubV-QA2QoW2X3zsCJkII-49" edge="1">
          <mxGeometry width="50" height="50" relative="1" as="geometry">
            <mxPoint x="470" y="622" as="sourcePoint"/>
            <mxPoint x="520" y="572" as="targetPoint"/>
          </mxGeometry>
        </mxCell>
        <mxCell id="ubV-QA2QoW2X3zsCJkII-52" value="" style="endArrow=none;html=1;exitX=1;exitY=0.75;exitDx=0;exitDy=0;entryX=0;entryY=0.75;entryDx=0;entryDy=0;" parent="1" source="ubV-QA2QoW2X3zsCJkII-49" target="ubV-QA2QoW2X3zsCJkII-49" edge="1">
          <mxGeometry width="50" height="50" relative="1" as="geometry">
            <mxPoint x="470" y="662" as="sourcePoint"/>
            <mxPoint x="520" y="612" as="targetPoint"/>
          </mxGeometry>
        </mxCell>
        <mxCell id="ubV-QA2QoW2X3zsCJkII-56" value="1" style="text;html=1;strokeColor=none;fillColor=none;align=center;verticalAlign=middle;whiteSpace=wrap;rounded=0;fontColor=#FFFFFF;fontSize=16;" parent="1" vertex="1">
          <mxGeometry x="585" y="572" width="40" height="20" as="geometry"/>
        </mxCell>
        <mxCell id="Y3cnyNxsgSKWZ6Iq4NnD-9" value="" style="rounded=1;whiteSpace=wrap;html=1;fillColor=#66B2FF;" vertex="1" parent="1">
          <mxGeometry x="575" y="705" width="50" height="190" as="geometry"/>
        </mxCell>
        <mxCell id="Y3cnyNxsgSKWZ6Iq4NnD-10" value="" style="endArrow=none;html=1;exitX=1;exitY=0.5;exitDx=0;exitDy=0;entryX=0;entryY=0.5;entryDx=0;entryDy=0;" edge="1" parent="1" source="Y3cnyNxsgSKWZ6Iq4NnD-9" target="Y3cnyNxsgSKWZ6Iq4NnD-9">
          <mxGeometry width="50" height="50" relative="1" as="geometry">
            <mxPoint x="485" y="922" as="sourcePoint"/>
            <mxPoint x="575" y="867" as="targetPoint"/>
          </mxGeometry>
        </mxCell>
        <mxCell id="Y3cnyNxsgSKWZ6Iq4NnD-11" value="" style="endArrow=none;html=1;exitX=1;exitY=0.25;exitDx=0;exitDy=0;entryX=0;entryY=0.25;entryDx=0;entryDy=0;" edge="1" parent="1" source="Y3cnyNxsgSKWZ6Iq4NnD-9" target="Y3cnyNxsgSKWZ6Iq4NnD-9">
          <mxGeometry width="50" height="50" relative="1" as="geometry">
            <mxPoint x="465" y="912" as="sourcePoint"/>
            <mxPoint x="515" y="862" as="targetPoint"/>
          </mxGeometry>
        </mxCell>
        <mxCell id="Y3cnyNxsgSKWZ6Iq4NnD-12" value="" style="endArrow=none;html=1;exitX=1;exitY=0.75;exitDx=0;exitDy=0;entryX=0;entryY=0.75;entryDx=0;entryDy=0;" edge="1" parent="1" source="Y3cnyNxsgSKWZ6Iq4NnD-9" target="Y3cnyNxsgSKWZ6Iq4NnD-9">
          <mxGeometry width="50" height="50" relative="1" as="geometry">
            <mxPoint x="465" y="952" as="sourcePoint"/>
            <mxPoint x="515" y="902" as="targetPoint"/>
          </mxGeometry>
        </mxCell>
        <mxCell id="Y3cnyNxsgSKWZ6Iq4NnD-13" value="2" style="text;html=1;strokeColor=none;fillColor=none;align=center;verticalAlign=middle;whiteSpace=wrap;rounded=0;fontColor=#FFFFFF;fontSize=16;" vertex="1" parent="1">
          <mxGeometry x="592.5" y="860.5" width="15" height="23" as="geometry"/>
        </mxCell>
        <mxCell id="Y3cnyNxsgSKWZ6Iq4NnD-19" value="" style="rounded=1;whiteSpace=wrap;html=1;fillColor=#66B2FF;" vertex="1" parent="1">
          <mxGeometry x="575" y="1023" width="50" height="190" as="geometry"/>
        </mxCell>
        <mxCell id="Y3cnyNxsgSKWZ6Iq4NnD-20" value="" style="endArrow=none;html=1;exitX=1;exitY=0.5;exitDx=0;exitDy=0;entryX=0;entryY=0.5;entryDx=0;entryDy=0;" edge="1" parent="1" source="Y3cnyNxsgSKWZ6Iq4NnD-19" target="Y3cnyNxsgSKWZ6Iq4NnD-19">
          <mxGeometry width="50" height="50" relative="1" as="geometry">
            <mxPoint x="415" y="1177" as="sourcePoint"/>
            <mxPoint x="505" y="1122" as="targetPoint"/>
          </mxGeometry>
        </mxCell>
        <mxCell id="Y3cnyNxsgSKWZ6Iq4NnD-21" value="" style="endArrow=none;html=1;exitX=1;exitY=0.25;exitDx=0;exitDy=0;entryX=0;entryY=0.25;entryDx=0;entryDy=0;" edge="1" parent="1" source="Y3cnyNxsgSKWZ6Iq4NnD-19" target="Y3cnyNxsgSKWZ6Iq4NnD-19">
          <mxGeometry width="50" height="50" relative="1" as="geometry">
            <mxPoint x="395" y="1167" as="sourcePoint"/>
            <mxPoint x="445" y="1117" as="targetPoint"/>
          </mxGeometry>
        </mxCell>
        <mxCell id="Y3cnyNxsgSKWZ6Iq4NnD-22" value="" style="endArrow=none;html=1;exitX=1;exitY=0.75;exitDx=0;exitDy=0;entryX=0;entryY=0.75;entryDx=0;entryDy=0;" edge="1" parent="1" source="Y3cnyNxsgSKWZ6Iq4NnD-19" target="Y3cnyNxsgSKWZ6Iq4NnD-19">
          <mxGeometry width="50" height="50" relative="1" as="geometry">
            <mxPoint x="395" y="1207" as="sourcePoint"/>
            <mxPoint x="445" y="1157" as="targetPoint"/>
          </mxGeometry>
        </mxCell>
        <mxCell id="Y3cnyNxsgSKWZ6Iq4NnD-23" value="1" style="text;html=1;strokeColor=none;fillColor=none;align=center;verticalAlign=middle;whiteSpace=wrap;rounded=0;fontColor=#FFFFFF;fontSize=16;" vertex="1" parent="1">
          <mxGeometry x="510" y="1117" width="40" height="20" as="geometry"/>
        </mxCell>
        <mxCell id="Y3cnyNxsgSKWZ6Iq4NnD-27" value="3" style="text;html=1;strokeColor=none;fillColor=none;align=center;verticalAlign=middle;whiteSpace=wrap;rounded=0;fontColor=#FFFFFF;fontSize=16;" vertex="1" parent="1">
          <mxGeometry x="592.5" y="815" width="15" height="23" as="geometry"/>
        </mxCell>
        <mxCell id="Y3cnyNxsgSKWZ6Iq4NnD-28" value="4" style="text;html=1;strokeColor=none;fillColor=none;align=center;verticalAlign=middle;whiteSpace=wrap;rounded=0;fontColor=#FFFFFF;fontSize=16;" vertex="1" parent="1">
          <mxGeometry x="592.5" y="765" width="15" height="23" as="geometry"/>
        </mxCell>
        <mxCell id="Y3cnyNxsgSKWZ6Iq4NnD-48" value="" style="ellipse;whiteSpace=wrap;html=1;aspect=fixed;fillColor=#000000;" vertex="1" parent="1">
          <mxGeometry x="190" y="700" width="40" height="40" as="geometry"/>
        </mxCell>
        <mxCell id="Y3cnyNxsgSKWZ6Iq4NnD-49" value="" style="ellipse;whiteSpace=wrap;html=1;aspect=fixed;fillColor=#000000;" vertex="1" parent="1">
          <mxGeometry x="110" y="780" width="40" height="40" as="geometry"/>
        </mxCell>
        <mxCell id="Y3cnyNxsgSKWZ6Iq4NnD-50" value="7" style="ellipse;whiteSpace=wrap;html=1;aspect=fixed;fillColor=#66B2FF;fontColor=#FFFFFF;" vertex="1" parent="1">
          <mxGeometry x="380" y="780" width="40" height="40" as="geometry"/>
        </mxCell>
        <mxCell id="Y3cnyNxsgSKWZ6Iq4NnD-51" value="" style="ellipse;whiteSpace=wrap;html=1;aspect=fixed;fillColor=#000000;" vertex="1" parent="1">
          <mxGeometry x="190" y="860" width="40" height="40" as="geometry"/>
        </mxCell>
        <mxCell id="Y3cnyNxsgSKWZ6Iq4NnD-52" value="" style="endArrow=none;html=1;exitX=0;exitY=1;exitDx=0;exitDy=0;entryX=1;entryY=0;entryDx=0;entryDy=0;" edge="1" parent="1" source="Y3cnyNxsgSKWZ6Iq4NnD-48" target="Y3cnyNxsgSKWZ6Iq4NnD-49">
          <mxGeometry width="50" height="50" relative="1" as="geometry">
            <mxPoint x="50" y="1100" as="sourcePoint"/>
            <mxPoint x="100" y="1050" as="targetPoint"/>
          </mxGeometry>
        </mxCell>
        <mxCell id="Y3cnyNxsgSKWZ6Iq4NnD-53" value="" style="endArrow=none;html=1;exitX=1;exitY=1;exitDx=0;exitDy=0;entryX=0;entryY=0;entryDx=0;entryDy=0;" edge="1" parent="1" source="Y3cnyNxsgSKWZ6Iq4NnD-49" target="Y3cnyNxsgSKWZ6Iq4NnD-51">
          <mxGeometry width="50" height="50" relative="1" as="geometry">
            <mxPoint x="160" y="970" as="sourcePoint"/>
            <mxPoint x="180" y="1100" as="targetPoint"/>
          </mxGeometry>
        </mxCell>
        <mxCell id="Y3cnyNxsgSKWZ6Iq4NnD-54" value="1" style="text;html=1;strokeColor=none;fillColor=none;align=center;verticalAlign=middle;whiteSpace=wrap;rounded=0;fontColor=#FFFFFF;" vertex="1" parent="1">
          <mxGeometry x="115" y="790" width="30" height="20" as="geometry"/>
        </mxCell>
        <mxCell id="Y3cnyNxsgSKWZ6Iq4NnD-55" value="2" style="text;html=1;strokeColor=none;fillColor=none;align=center;verticalAlign=middle;whiteSpace=wrap;rounded=0;fontColor=#FFFFFF;" vertex="1" parent="1">
          <mxGeometry x="200" y="715" width="20" height="10" as="geometry"/>
        </mxCell>
        <mxCell id="Y3cnyNxsgSKWZ6Iq4NnD-56" value="4" style="text;html=1;strokeColor=none;fillColor=none;align=center;verticalAlign=middle;whiteSpace=wrap;rounded=0;fontColor=#FFFFFF;" vertex="1" parent="1">
          <mxGeometry x="200" y="875" width="20" height="10" as="geometry"/>
        </mxCell>
        <mxCell id="Y3cnyNxsgSKWZ6Iq4NnD-57" value="&lt;font color=&quot;#ffffff&quot;&gt;3&lt;/font&gt;" style="ellipse;whiteSpace=wrap;html=1;aspect=fixed;fillColor=#000000;" vertex="1" parent="1">
          <mxGeometry x="210" y="780" width="40" height="40" as="geometry"/>
        </mxCell>
        <mxCell id="Y3cnyNxsgSKWZ6Iq4NnD-58" value="5" style="ellipse;whiteSpace=wrap;html=1;aspect=fixed;fillColor=#66B2FF;fontColor=#FFFFFF;" vertex="1" parent="1">
          <mxGeometry x="290" y="740" width="40" height="40" as="geometry"/>
        </mxCell>
        <mxCell id="Y3cnyNxsgSKWZ6Iq4NnD-59" value="6" style="ellipse;whiteSpace=wrap;html=1;aspect=fixed;fillColor=#66B2FF;fontColor=#FFFFFF;" vertex="1" parent="1">
          <mxGeometry x="290" y="820" width="40" height="40" as="geometry"/>
        </mxCell>
        <mxCell id="Y3cnyNxsgSKWZ6Iq4NnD-60" value="" style="endArrow=none;html=1;entryX=0;entryY=1;entryDx=0;entryDy=0;" edge="1" parent="1" target="Y3cnyNxsgSKWZ6Iq4NnD-59">
          <mxGeometry width="50" height="50" relative="1" as="geometry">
            <mxPoint x="230" y="878" as="sourcePoint"/>
            <mxPoint x="180" y="970" as="targetPoint"/>
          </mxGeometry>
        </mxCell>
        <mxCell id="Y3cnyNxsgSKWZ6Iq4NnD-62" value="" style="endArrow=none;html=1;exitX=0.975;exitY=0.675;exitDx=0;exitDy=0;entryX=0.025;entryY=0.325;entryDx=0;entryDy=0;entryPerimeter=0;exitPerimeter=0;" edge="1" parent="1" source="Y3cnyNxsgSKWZ6Iq4NnD-58" target="Y3cnyNxsgSKWZ6Iq4NnD-50">
          <mxGeometry width="50" height="50" relative="1" as="geometry">
            <mxPoint x="110" y="980" as="sourcePoint"/>
            <mxPoint x="160" y="930" as="targetPoint"/>
          </mxGeometry>
        </mxCell>
        <mxCell id="Y3cnyNxsgSKWZ6Iq4NnD-63" value="" style="endArrow=none;html=1;exitX=0;exitY=1;exitDx=0;exitDy=0;entryX=1;entryY=0.5;entryDx=0;entryDy=0;" edge="1" parent="1" source="Y3cnyNxsgSKWZ6Iq4NnD-50" target="Y3cnyNxsgSKWZ6Iq4NnD-59">
          <mxGeometry width="50" height="50" relative="1" as="geometry">
            <mxPoint x="80" y="1010" as="sourcePoint"/>
            <mxPoint x="130" y="960" as="targetPoint"/>
          </mxGeometry>
        </mxCell>
        <mxCell id="Y3cnyNxsgSKWZ6Iq4NnD-64" value="" style="endArrow=none;html=1;exitX=0;exitY=1;exitDx=0;exitDy=0;entryX=1;entryY=0.5;entryDx=0;entryDy=0;" edge="1" parent="1" source="Y3cnyNxsgSKWZ6Iq4NnD-58" target="Y3cnyNxsgSKWZ6Iq4NnD-57">
          <mxGeometry width="50" height="50" relative="1" as="geometry">
            <mxPoint x="160" y="1000" as="sourcePoint"/>
            <mxPoint x="210" y="950" as="targetPoint"/>
          </mxGeometry>
        </mxCell>
        <mxCell id="Y3cnyNxsgSKWZ6Iq4NnD-65" value="" style="endArrow=none;html=1;entryX=0.05;entryY=0.35;entryDx=0;entryDy=0;entryPerimeter=0;" edge="1" parent="1" target="Y3cnyNxsgSKWZ6Iq4NnD-59">
          <mxGeometry width="50" height="50" relative="1" as="geometry">
            <mxPoint x="250" y="808" as="sourcePoint"/>
            <mxPoint x="220" y="960" as="targetPoint"/>
          </mxGeometry>
        </mxCell>
        <mxCell id="Y3cnyNxsgSKWZ6Iq4NnD-66" value="" style="endArrow=none;html=1;exitX=1;exitY=0.5;exitDx=0;exitDy=0;entryX=0;entryY=0.5;entryDx=0;entryDy=0;" edge="1" parent="1" source="Y3cnyNxsgSKWZ6Iq4NnD-49" target="Y3cnyNxsgSKWZ6Iq4NnD-57">
          <mxGeometry width="50" height="50" relative="1" as="geometry">
            <mxPoint x="50" y="990" as="sourcePoint"/>
            <mxPoint x="100" y="940" as="targetPoint"/>
          </mxGeometry>
        </mxCell>
        <mxCell id="Y3cnyNxsgSKWZ6Iq4NnD-67" value="" style="endArrow=none;html=1;entryX=0.025;entryY=0.325;entryDx=0;entryDy=0;entryPerimeter=0;exitX=0.95;exitY=0.675;exitDx=0;exitDy=0;exitPerimeter=0;" edge="1" parent="1" source="Y3cnyNxsgSKWZ6Iq4NnD-48" target="Y3cnyNxsgSKWZ6Iq4NnD-58">
          <mxGeometry width="50" height="50" relative="1" as="geometry">
            <mxPoint x="230" y="730" as="sourcePoint"/>
            <mxPoint x="100" y="940" as="targetPoint"/>
          </mxGeometry>
        </mxCell>
        <mxCell id="Y3cnyNxsgSKWZ6Iq4NnD-68" value="" style="ellipse;whiteSpace=wrap;html=1;aspect=fixed;fillColor=#000000;" vertex="1" parent="1">
          <mxGeometry x="190" y="1008" width="40" height="40" as="geometry"/>
        </mxCell>
        <mxCell id="Y3cnyNxsgSKWZ6Iq4NnD-69" value="" style="ellipse;whiteSpace=wrap;html=1;aspect=fixed;fillColor=#000000;" vertex="1" parent="1">
          <mxGeometry x="110" y="1088" width="40" height="40" as="geometry"/>
        </mxCell>
        <mxCell id="Y3cnyNxsgSKWZ6Iq4NnD-70" value="7" style="ellipse;whiteSpace=wrap;html=1;aspect=fixed;fillColor=#66B2FF;fontColor=#FFFFFF;" vertex="1" parent="1">
          <mxGeometry x="380" y="1088" width="40" height="40" as="geometry"/>
        </mxCell>
        <mxCell id="Y3cnyNxsgSKWZ6Iq4NnD-71" value="" style="ellipse;whiteSpace=wrap;html=1;aspect=fixed;fillColor=#000000;" vertex="1" parent="1">
          <mxGeometry x="190" y="1168" width="40" height="40" as="geometry"/>
        </mxCell>
        <mxCell id="Y3cnyNxsgSKWZ6Iq4NnD-72" value="" style="endArrow=none;html=1;exitX=0;exitY=1;exitDx=0;exitDy=0;entryX=1;entryY=0;entryDx=0;entryDy=0;" edge="1" parent="1" source="Y3cnyNxsgSKWZ6Iq4NnD-68" target="Y3cnyNxsgSKWZ6Iq4NnD-69">
          <mxGeometry width="50" height="50" relative="1" as="geometry">
            <mxPoint x="50" y="1408" as="sourcePoint"/>
            <mxPoint x="100" y="1358" as="targetPoint"/>
          </mxGeometry>
        </mxCell>
        <mxCell id="Y3cnyNxsgSKWZ6Iq4NnD-73" value="" style="endArrow=none;html=1;exitX=1;exitY=1;exitDx=0;exitDy=0;entryX=0;entryY=0;entryDx=0;entryDy=0;" edge="1" parent="1" source="Y3cnyNxsgSKWZ6Iq4NnD-69" target="Y3cnyNxsgSKWZ6Iq4NnD-71">
          <mxGeometry width="50" height="50" relative="1" as="geometry">
            <mxPoint x="160" y="1278" as="sourcePoint"/>
            <mxPoint x="180" y="1408" as="targetPoint"/>
          </mxGeometry>
        </mxCell>
        <mxCell id="Y3cnyNxsgSKWZ6Iq4NnD-74" value="1" style="text;html=1;strokeColor=none;fillColor=none;align=center;verticalAlign=middle;whiteSpace=wrap;rounded=0;fontColor=#FFFFFF;" vertex="1" parent="1">
          <mxGeometry x="115" y="1098" width="30" height="20" as="geometry"/>
        </mxCell>
        <mxCell id="Y3cnyNxsgSKWZ6Iq4NnD-75" value="2" style="text;html=1;strokeColor=none;fillColor=none;align=center;verticalAlign=middle;whiteSpace=wrap;rounded=0;fontColor=#FFFFFF;" vertex="1" parent="1">
          <mxGeometry x="200" y="1023" width="20" height="10" as="geometry"/>
        </mxCell>
        <mxCell id="Y3cnyNxsgSKWZ6Iq4NnD-76" value="4" style="text;html=1;strokeColor=none;fillColor=none;align=center;verticalAlign=middle;whiteSpace=wrap;rounded=0;fontColor=#FFFFFF;" vertex="1" parent="1">
          <mxGeometry x="200" y="1183" width="20" height="10" as="geometry"/>
        </mxCell>
        <mxCell id="Y3cnyNxsgSKWZ6Iq4NnD-77" value="&lt;font color=&quot;#ffffff&quot;&gt;3&lt;/font&gt;" style="ellipse;whiteSpace=wrap;html=1;aspect=fixed;fillColor=#000000;" vertex="1" parent="1">
          <mxGeometry x="210" y="1088" width="40" height="40" as="geometry"/>
        </mxCell>
        <mxCell id="Y3cnyNxsgSKWZ6Iq4NnD-78" value="5" style="ellipse;whiteSpace=wrap;html=1;aspect=fixed;fillColor=#000000;fontColor=#FFFFFF;" vertex="1" parent="1">
          <mxGeometry x="290" y="1048" width="40" height="40" as="geometry"/>
        </mxCell>
        <mxCell id="Y3cnyNxsgSKWZ6Iq4NnD-79" value="6" style="ellipse;whiteSpace=wrap;html=1;aspect=fixed;fillColor=#66B2FF;fontColor=#FFFFFF;" vertex="1" parent="1">
          <mxGeometry x="290" y="1128" width="40" height="40" as="geometry"/>
        </mxCell>
        <mxCell id="Y3cnyNxsgSKWZ6Iq4NnD-80" value="" style="endArrow=none;html=1;entryX=0;entryY=1;entryDx=0;entryDy=0;" edge="1" parent="1" target="Y3cnyNxsgSKWZ6Iq4NnD-79">
          <mxGeometry width="50" height="50" relative="1" as="geometry">
            <mxPoint x="230" y="1186" as="sourcePoint"/>
            <mxPoint x="180" y="1278" as="targetPoint"/>
          </mxGeometry>
        </mxCell>
        <mxCell id="Y3cnyNxsgSKWZ6Iq4NnD-81" value="" style="endArrow=none;html=1;exitX=0.975;exitY=0.675;exitDx=0;exitDy=0;entryX=0.025;entryY=0.325;entryDx=0;entryDy=0;entryPerimeter=0;exitPerimeter=0;" edge="1" parent="1" source="Y3cnyNxsgSKWZ6Iq4NnD-78" target="Y3cnyNxsgSKWZ6Iq4NnD-70">
          <mxGeometry width="50" height="50" relative="1" as="geometry">
            <mxPoint x="110" y="1288" as="sourcePoint"/>
            <mxPoint x="160" y="1238" as="targetPoint"/>
          </mxGeometry>
        </mxCell>
        <mxCell id="Y3cnyNxsgSKWZ6Iq4NnD-82" value="" style="endArrow=none;html=1;exitX=0;exitY=1;exitDx=0;exitDy=0;entryX=1;entryY=0.5;entryDx=0;entryDy=0;" edge="1" parent="1" source="Y3cnyNxsgSKWZ6Iq4NnD-70" target="Y3cnyNxsgSKWZ6Iq4NnD-79">
          <mxGeometry width="50" height="50" relative="1" as="geometry">
            <mxPoint x="80" y="1318" as="sourcePoint"/>
            <mxPoint x="130" y="1268" as="targetPoint"/>
          </mxGeometry>
        </mxCell>
        <mxCell id="Y3cnyNxsgSKWZ6Iq4NnD-83" value="" style="endArrow=none;html=1;exitX=0;exitY=1;exitDx=0;exitDy=0;entryX=1;entryY=0.5;entryDx=0;entryDy=0;" edge="1" parent="1" source="Y3cnyNxsgSKWZ6Iq4NnD-78" target="Y3cnyNxsgSKWZ6Iq4NnD-77">
          <mxGeometry width="50" height="50" relative="1" as="geometry">
            <mxPoint x="160" y="1308" as="sourcePoint"/>
            <mxPoint x="210" y="1258" as="targetPoint"/>
          </mxGeometry>
        </mxCell>
        <mxCell id="Y3cnyNxsgSKWZ6Iq4NnD-84" value="" style="endArrow=none;html=1;entryX=0.05;entryY=0.35;entryDx=0;entryDy=0;entryPerimeter=0;" edge="1" parent="1" target="Y3cnyNxsgSKWZ6Iq4NnD-79">
          <mxGeometry width="50" height="50" relative="1" as="geometry">
            <mxPoint x="250" y="1116" as="sourcePoint"/>
            <mxPoint x="220" y="1268" as="targetPoint"/>
          </mxGeometry>
        </mxCell>
        <mxCell id="Y3cnyNxsgSKWZ6Iq4NnD-85" value="" style="endArrow=none;html=1;exitX=1;exitY=0.5;exitDx=0;exitDy=0;entryX=0;entryY=0.5;entryDx=0;entryDy=0;" edge="1" parent="1" source="Y3cnyNxsgSKWZ6Iq4NnD-69" target="Y3cnyNxsgSKWZ6Iq4NnD-77">
          <mxGeometry width="50" height="50" relative="1" as="geometry">
            <mxPoint x="50" y="1298" as="sourcePoint"/>
            <mxPoint x="100" y="1248" as="targetPoint"/>
          </mxGeometry>
        </mxCell>
        <mxCell id="Y3cnyNxsgSKWZ6Iq4NnD-86" value="" style="endArrow=none;html=1;entryX=0.025;entryY=0.325;entryDx=0;entryDy=0;entryPerimeter=0;exitX=0.95;exitY=0.675;exitDx=0;exitDy=0;exitPerimeter=0;" edge="1" parent="1" source="Y3cnyNxsgSKWZ6Iq4NnD-68" target="Y3cnyNxsgSKWZ6Iq4NnD-78">
          <mxGeometry width="50" height="50" relative="1" as="geometry">
            <mxPoint x="230" y="1038" as="sourcePoint"/>
            <mxPoint x="100" y="1248" as="targetPoint"/>
          </mxGeometry>
        </mxCell>
        <mxCell id="Y3cnyNxsgSKWZ6Iq4NnD-87" value="3" style="text;html=1;strokeColor=none;fillColor=none;align=center;verticalAlign=middle;whiteSpace=wrap;rounded=0;fontColor=#FFFFFF;fontSize=16;" vertex="1" parent="1">
          <mxGeometry x="592.5" y="1181" width="15" height="23" as="geometry"/>
        </mxCell>
        <mxCell id="Y3cnyNxsgSKWZ6Iq4NnD-88" value="" style="endArrow=classic;html=1;" edge="1" parent="1">
          <mxGeometry width="50" height="50" relative="1" as="geometry">
            <mxPoint x="668" y="582.5" as="sourcePoint"/>
            <mxPoint x="638" y="582.5" as="targetPoint"/>
            <Array as="points">
              <mxPoint x="648" y="582.5"/>
            </Array>
          </mxGeometry>
        </mxCell>
        <mxCell id="Y3cnyNxsgSKWZ6Iq4NnD-89" value="队首" style="text;html=1;strokeColor=none;fillColor=none;align=center;verticalAlign=middle;whiteSpace=wrap;rounded=0;" vertex="1" parent="1">
          <mxGeometry x="670" y="572" width="40" height="20" as="geometry"/>
        </mxCell>
        <mxCell id="Y3cnyNxsgSKWZ6Iq4NnD-91" value="" style="endArrow=classic;html=1;" edge="1" parent="1">
          <mxGeometry width="50" height="50" relative="1" as="geometry">
            <mxPoint x="668" y="874" as="sourcePoint"/>
            <mxPoint x="638" y="874" as="targetPoint"/>
            <Array as="points">
              <mxPoint x="648" y="874"/>
            </Array>
          </mxGeometry>
        </mxCell>
        <mxCell id="Y3cnyNxsgSKWZ6Iq4NnD-92" value="队首" style="text;html=1;strokeColor=none;fillColor=none;align=center;verticalAlign=middle;whiteSpace=wrap;rounded=0;" vertex="1" parent="1">
          <mxGeometry x="670" y="863.5" width="40" height="20" as="geometry"/>
        </mxCell>
        <mxCell id="Y3cnyNxsgSKWZ6Iq4NnD-93" value="" style="endArrow=classic;html=1;" edge="1" parent="1">
          <mxGeometry width="50" height="50" relative="1" as="geometry">
            <mxPoint x="668" y="1188.5" as="sourcePoint"/>
            <mxPoint x="638" y="1188.5" as="targetPoint"/>
            <Array as="points">
              <mxPoint x="648" y="1188.5"/>
            </Array>
          </mxGeometry>
        </mxCell>
        <mxCell id="Y3cnyNxsgSKWZ6Iq4NnD-94" value="队首" style="text;html=1;strokeColor=none;fillColor=none;align=center;verticalAlign=middle;whiteSpace=wrap;rounded=0;" vertex="1" parent="1">
          <mxGeometry x="670" y="1178" width="40" height="20" as="geometry"/>
        </mxCell>
        <mxCell id="Y3cnyNxsgSKWZ6Iq4NnD-95" value="4" style="text;html=1;strokeColor=none;fillColor=none;align=center;verticalAlign=middle;whiteSpace=wrap;rounded=0;fontColor=#FFFFFF;fontSize=16;" vertex="1" parent="1">
          <mxGeometry x="592.5" y="1128" width="15" height="23" as="geometry"/>
        </mxCell>
        <mxCell id="Y3cnyNxsgSKWZ6Iq4NnD-96" value="5" style="text;html=1;strokeColor=none;fillColor=none;align=center;verticalAlign=middle;whiteSpace=wrap;rounded=0;fontColor=#FFFFFF;fontSize=16;" vertex="1" parent="1">
          <mxGeometry x="592.5" y="1086" width="15" height="23" as="geometry"/>
        </mxCell>
        <mxCell id="Y3cnyNxsgSKWZ6Iq4NnD-97" value="" style="rounded=1;whiteSpace=wrap;html=1;fillColor=#66B2FF;" vertex="1" parent="1">
          <mxGeometry x="575" y="1309" width="50" height="190" as="geometry"/>
        </mxCell>
        <mxCell id="Y3cnyNxsgSKWZ6Iq4NnD-98" value="" style="endArrow=none;html=1;exitX=1;exitY=0.5;exitDx=0;exitDy=0;entryX=0;entryY=0.5;entryDx=0;entryDy=0;" edge="1" parent="1" source="Y3cnyNxsgSKWZ6Iq4NnD-97" target="Y3cnyNxsgSKWZ6Iq4NnD-97">
          <mxGeometry width="50" height="50" relative="1" as="geometry">
            <mxPoint x="415" y="1463" as="sourcePoint"/>
            <mxPoint x="505" y="1408" as="targetPoint"/>
          </mxGeometry>
        </mxCell>
        <mxCell id="Y3cnyNxsgSKWZ6Iq4NnD-99" value="" style="endArrow=none;html=1;exitX=1;exitY=0.25;exitDx=0;exitDy=0;entryX=0;entryY=0.25;entryDx=0;entryDy=0;" edge="1" parent="1" source="Y3cnyNxsgSKWZ6Iq4NnD-97" target="Y3cnyNxsgSKWZ6Iq4NnD-97">
          <mxGeometry width="50" height="50" relative="1" as="geometry">
            <mxPoint x="395" y="1453" as="sourcePoint"/>
            <mxPoint x="445" y="1403" as="targetPoint"/>
          </mxGeometry>
        </mxCell>
        <mxCell id="Y3cnyNxsgSKWZ6Iq4NnD-100" value="" style="endArrow=none;html=1;exitX=1;exitY=0.75;exitDx=0;exitDy=0;entryX=0;entryY=0.75;entryDx=0;entryDy=0;" edge="1" parent="1" source="Y3cnyNxsgSKWZ6Iq4NnD-97" target="Y3cnyNxsgSKWZ6Iq4NnD-97">
          <mxGeometry width="50" height="50" relative="1" as="geometry">
            <mxPoint x="395" y="1493" as="sourcePoint"/>
            <mxPoint x="445" y="1443" as="targetPoint"/>
          </mxGeometry>
        </mxCell>
        <mxCell id="Y3cnyNxsgSKWZ6Iq4NnD-101" value="1" style="text;html=1;strokeColor=none;fillColor=none;align=center;verticalAlign=middle;whiteSpace=wrap;rounded=0;fontColor=#FFFFFF;fontSize=16;" vertex="1" parent="1">
          <mxGeometry x="510" y="1403" width="40" height="20" as="geometry"/>
        </mxCell>
        <mxCell id="Y3cnyNxsgSKWZ6Iq4NnD-102" value="" style="ellipse;whiteSpace=wrap;html=1;aspect=fixed;fillColor=#000000;" vertex="1" parent="1">
          <mxGeometry x="190" y="1294" width="40" height="40" as="geometry"/>
        </mxCell>
        <mxCell id="Y3cnyNxsgSKWZ6Iq4NnD-103" value="" style="ellipse;whiteSpace=wrap;html=1;aspect=fixed;fillColor=#000000;" vertex="1" parent="1">
          <mxGeometry x="110" y="1374" width="40" height="40" as="geometry"/>
        </mxCell>
        <mxCell id="Y3cnyNxsgSKWZ6Iq4NnD-104" value="7" style="ellipse;whiteSpace=wrap;html=1;aspect=fixed;fillColor=#66B2FF;fontColor=#FFFFFF;" vertex="1" parent="1">
          <mxGeometry x="380" y="1374" width="40" height="40" as="geometry"/>
        </mxCell>
        <mxCell id="Y3cnyNxsgSKWZ6Iq4NnD-105" value="" style="ellipse;whiteSpace=wrap;html=1;aspect=fixed;fillColor=#000000;" vertex="1" parent="1">
          <mxGeometry x="190" y="1454" width="40" height="40" as="geometry"/>
        </mxCell>
        <mxCell id="Y3cnyNxsgSKWZ6Iq4NnD-106" value="" style="endArrow=none;html=1;exitX=0;exitY=1;exitDx=0;exitDy=0;entryX=1;entryY=0;entryDx=0;entryDy=0;" edge="1" parent="1" source="Y3cnyNxsgSKWZ6Iq4NnD-102" target="Y3cnyNxsgSKWZ6Iq4NnD-103">
          <mxGeometry width="50" height="50" relative="1" as="geometry">
            <mxPoint x="50" y="1694" as="sourcePoint"/>
            <mxPoint x="100" y="1644" as="targetPoint"/>
          </mxGeometry>
        </mxCell>
        <mxCell id="Y3cnyNxsgSKWZ6Iq4NnD-107" value="" style="endArrow=none;html=1;exitX=1;exitY=1;exitDx=0;exitDy=0;entryX=0;entryY=0;entryDx=0;entryDy=0;" edge="1" parent="1" source="Y3cnyNxsgSKWZ6Iq4NnD-103" target="Y3cnyNxsgSKWZ6Iq4NnD-105">
          <mxGeometry width="50" height="50" relative="1" as="geometry">
            <mxPoint x="160" y="1564" as="sourcePoint"/>
            <mxPoint x="180" y="1694" as="targetPoint"/>
          </mxGeometry>
        </mxCell>
        <mxCell id="Y3cnyNxsgSKWZ6Iq4NnD-108" value="1" style="text;html=1;strokeColor=none;fillColor=none;align=center;verticalAlign=middle;whiteSpace=wrap;rounded=0;fontColor=#FFFFFF;" vertex="1" parent="1">
          <mxGeometry x="115" y="1384" width="30" height="20" as="geometry"/>
        </mxCell>
        <mxCell id="Y3cnyNxsgSKWZ6Iq4NnD-109" value="2" style="text;html=1;strokeColor=none;fillColor=none;align=center;verticalAlign=middle;whiteSpace=wrap;rounded=0;fontColor=#FFFFFF;" vertex="1" parent="1">
          <mxGeometry x="200" y="1309" width="20" height="10" as="geometry"/>
        </mxCell>
        <mxCell id="Y3cnyNxsgSKWZ6Iq4NnD-110" value="4" style="text;html=1;strokeColor=none;fillColor=none;align=center;verticalAlign=middle;whiteSpace=wrap;rounded=0;fontColor=#FFFFFF;" vertex="1" parent="1">
          <mxGeometry x="200" y="1469" width="20" height="10" as="geometry"/>
        </mxCell>
        <mxCell id="Y3cnyNxsgSKWZ6Iq4NnD-111" value="&lt;font color=&quot;#ffffff&quot;&gt;3&lt;/font&gt;" style="ellipse;whiteSpace=wrap;html=1;aspect=fixed;fillColor=#000000;" vertex="1" parent="1">
          <mxGeometry x="210" y="1374" width="40" height="40" as="geometry"/>
        </mxCell>
        <mxCell id="Y3cnyNxsgSKWZ6Iq4NnD-112" value="5" style="ellipse;whiteSpace=wrap;html=1;aspect=fixed;fillColor=#000000;fontColor=#FFFFFF;" vertex="1" parent="1">
          <mxGeometry x="290" y="1334" width="40" height="40" as="geometry"/>
        </mxCell>
        <mxCell id="Y3cnyNxsgSKWZ6Iq4NnD-113" value="6" style="ellipse;whiteSpace=wrap;html=1;aspect=fixed;fillColor=#000000;fontColor=#FFFFFF;" vertex="1" parent="1">
          <mxGeometry x="290" y="1414" width="40" height="40" as="geometry"/>
        </mxCell>
        <mxCell id="Y3cnyNxsgSKWZ6Iq4NnD-114" value="" style="endArrow=none;html=1;entryX=0;entryY=1;entryDx=0;entryDy=0;" edge="1" parent="1" target="Y3cnyNxsgSKWZ6Iq4NnD-113">
          <mxGeometry width="50" height="50" relative="1" as="geometry">
            <mxPoint x="230" y="1472" as="sourcePoint"/>
            <mxPoint x="180" y="1564" as="targetPoint"/>
          </mxGeometry>
        </mxCell>
        <mxCell id="Y3cnyNxsgSKWZ6Iq4NnD-115" value="" style="endArrow=none;html=1;exitX=0.975;exitY=0.675;exitDx=0;exitDy=0;entryX=0.025;entryY=0.325;entryDx=0;entryDy=0;entryPerimeter=0;exitPerimeter=0;" edge="1" parent="1" source="Y3cnyNxsgSKWZ6Iq4NnD-112" target="Y3cnyNxsgSKWZ6Iq4NnD-104">
          <mxGeometry width="50" height="50" relative="1" as="geometry">
            <mxPoint x="110" y="1574" as="sourcePoint"/>
            <mxPoint x="160" y="1524" as="targetPoint"/>
          </mxGeometry>
        </mxCell>
        <mxCell id="Y3cnyNxsgSKWZ6Iq4NnD-116" value="" style="endArrow=none;html=1;exitX=0;exitY=1;exitDx=0;exitDy=0;entryX=1;entryY=0.5;entryDx=0;entryDy=0;" edge="1" parent="1" source="Y3cnyNxsgSKWZ6Iq4NnD-104" target="Y3cnyNxsgSKWZ6Iq4NnD-113">
          <mxGeometry width="50" height="50" relative="1" as="geometry">
            <mxPoint x="80" y="1604" as="sourcePoint"/>
            <mxPoint x="130" y="1554" as="targetPoint"/>
          </mxGeometry>
        </mxCell>
        <mxCell id="Y3cnyNxsgSKWZ6Iq4NnD-117" value="" style="endArrow=none;html=1;exitX=0;exitY=1;exitDx=0;exitDy=0;entryX=1;entryY=0.5;entryDx=0;entryDy=0;" edge="1" parent="1" source="Y3cnyNxsgSKWZ6Iq4NnD-112" target="Y3cnyNxsgSKWZ6Iq4NnD-111">
          <mxGeometry width="50" height="50" relative="1" as="geometry">
            <mxPoint x="160" y="1594" as="sourcePoint"/>
            <mxPoint x="210" y="1544" as="targetPoint"/>
          </mxGeometry>
        </mxCell>
        <mxCell id="Y3cnyNxsgSKWZ6Iq4NnD-118" value="" style="endArrow=none;html=1;entryX=0.05;entryY=0.35;entryDx=0;entryDy=0;entryPerimeter=0;" edge="1" parent="1" target="Y3cnyNxsgSKWZ6Iq4NnD-113">
          <mxGeometry width="50" height="50" relative="1" as="geometry">
            <mxPoint x="250" y="1402" as="sourcePoint"/>
            <mxPoint x="220" y="1554" as="targetPoint"/>
          </mxGeometry>
        </mxCell>
        <mxCell id="Y3cnyNxsgSKWZ6Iq4NnD-119" value="" style="endArrow=none;html=1;exitX=1;exitY=0.5;exitDx=0;exitDy=0;entryX=0;entryY=0.5;entryDx=0;entryDy=0;" edge="1" parent="1" source="Y3cnyNxsgSKWZ6Iq4NnD-103" target="Y3cnyNxsgSKWZ6Iq4NnD-111">
          <mxGeometry width="50" height="50" relative="1" as="geometry">
            <mxPoint x="50" y="1584" as="sourcePoint"/>
            <mxPoint x="100" y="1534" as="targetPoint"/>
          </mxGeometry>
        </mxCell>
        <mxCell id="Y3cnyNxsgSKWZ6Iq4NnD-120" value="" style="endArrow=none;html=1;entryX=0.025;entryY=0.325;entryDx=0;entryDy=0;entryPerimeter=0;exitX=0.95;exitY=0.675;exitDx=0;exitDy=0;exitPerimeter=0;" edge="1" parent="1" source="Y3cnyNxsgSKWZ6Iq4NnD-102" target="Y3cnyNxsgSKWZ6Iq4NnD-112">
          <mxGeometry width="50" height="50" relative="1" as="geometry">
            <mxPoint x="230" y="1324" as="sourcePoint"/>
            <mxPoint x="100" y="1534" as="targetPoint"/>
          </mxGeometry>
        </mxCell>
        <mxCell id="Y3cnyNxsgSKWZ6Iq4NnD-121" value="4" style="text;html=1;strokeColor=none;fillColor=none;align=center;verticalAlign=middle;whiteSpace=wrap;rounded=0;fontColor=#FFFFFF;fontSize=16;" vertex="1" parent="1">
          <mxGeometry x="592.5" y="1467" width="15" height="23" as="geometry"/>
        </mxCell>
        <mxCell id="Y3cnyNxsgSKWZ6Iq4NnD-122" value="" style="endArrow=classic;html=1;" edge="1" parent="1">
          <mxGeometry width="50" height="50" relative="1" as="geometry">
            <mxPoint x="668" y="1474.5" as="sourcePoint"/>
            <mxPoint x="638" y="1474.5" as="targetPoint"/>
            <Array as="points">
              <mxPoint x="648" y="1474.5"/>
            </Array>
          </mxGeometry>
        </mxCell>
        <mxCell id="Y3cnyNxsgSKWZ6Iq4NnD-123" value="队首" style="text;html=1;strokeColor=none;fillColor=none;align=center;verticalAlign=middle;whiteSpace=wrap;rounded=0;" vertex="1" parent="1">
          <mxGeometry x="670" y="1464" width="40" height="20" as="geometry"/>
        </mxCell>
        <mxCell id="Y3cnyNxsgSKWZ6Iq4NnD-124" value="5" style="text;html=1;strokeColor=none;fillColor=none;align=center;verticalAlign=middle;whiteSpace=wrap;rounded=0;fontColor=#FFFFFF;fontSize=16;" vertex="1" parent="1">
          <mxGeometry x="592.5" y="1414" width="15" height="23" as="geometry"/>
        </mxCell>
        <mxCell id="Y3cnyNxsgSKWZ6Iq4NnD-125" value="6" style="text;html=1;strokeColor=none;fillColor=none;align=center;verticalAlign=middle;whiteSpace=wrap;rounded=0;fontColor=#FFFFFF;fontSize=16;" vertex="1" parent="1">
          <mxGeometry x="592.5" y="1372" width="15" height="23" as="geometry"/>
        </mxCell>
        <mxCell id="Y3cnyNxsgSKWZ6Iq4NnD-127" value="" style="rounded=1;whiteSpace=wrap;html=1;fillColor=#66B2FF;" vertex="1" parent="1">
          <mxGeometry x="575" y="1625" width="50" height="190" as="geometry"/>
        </mxCell>
        <mxCell id="Y3cnyNxsgSKWZ6Iq4NnD-128" value="" style="endArrow=none;html=1;exitX=1;exitY=0.5;exitDx=0;exitDy=0;entryX=0;entryY=0.5;entryDx=0;entryDy=0;" edge="1" parent="1" source="Y3cnyNxsgSKWZ6Iq4NnD-127" target="Y3cnyNxsgSKWZ6Iq4NnD-127">
          <mxGeometry width="50" height="50" relative="1" as="geometry">
            <mxPoint x="415" y="1779" as="sourcePoint"/>
            <mxPoint x="505" y="1724" as="targetPoint"/>
          </mxGeometry>
        </mxCell>
        <mxCell id="Y3cnyNxsgSKWZ6Iq4NnD-129" value="" style="endArrow=none;html=1;exitX=1;exitY=0.25;exitDx=0;exitDy=0;entryX=0;entryY=0.25;entryDx=0;entryDy=0;" edge="1" parent="1" source="Y3cnyNxsgSKWZ6Iq4NnD-127" target="Y3cnyNxsgSKWZ6Iq4NnD-127">
          <mxGeometry width="50" height="50" relative="1" as="geometry">
            <mxPoint x="395" y="1769" as="sourcePoint"/>
            <mxPoint x="445" y="1719" as="targetPoint"/>
          </mxGeometry>
        </mxCell>
        <mxCell id="Y3cnyNxsgSKWZ6Iq4NnD-130" value="" style="endArrow=none;html=1;exitX=1;exitY=0.75;exitDx=0;exitDy=0;entryX=0;entryY=0.75;entryDx=0;entryDy=0;" edge="1" parent="1" source="Y3cnyNxsgSKWZ6Iq4NnD-127" target="Y3cnyNxsgSKWZ6Iq4NnD-127">
          <mxGeometry width="50" height="50" relative="1" as="geometry">
            <mxPoint x="395" y="1809" as="sourcePoint"/>
            <mxPoint x="445" y="1759" as="targetPoint"/>
          </mxGeometry>
        </mxCell>
        <mxCell id="Y3cnyNxsgSKWZ6Iq4NnD-131" value="1" style="text;html=1;strokeColor=none;fillColor=none;align=center;verticalAlign=middle;whiteSpace=wrap;rounded=0;fontColor=#FFFFFF;fontSize=16;" vertex="1" parent="1">
          <mxGeometry x="510" y="1719" width="40" height="20" as="geometry"/>
        </mxCell>
        <mxCell id="Y3cnyNxsgSKWZ6Iq4NnD-132" value="" style="ellipse;whiteSpace=wrap;html=1;aspect=fixed;fillColor=#000000;" vertex="1" parent="1">
          <mxGeometry x="190" y="1610" width="40" height="40" as="geometry"/>
        </mxCell>
        <mxCell id="Y3cnyNxsgSKWZ6Iq4NnD-133" value="" style="ellipse;whiteSpace=wrap;html=1;aspect=fixed;fillColor=#000000;" vertex="1" parent="1">
          <mxGeometry x="110" y="1690" width="40" height="40" as="geometry"/>
        </mxCell>
        <mxCell id="Y3cnyNxsgSKWZ6Iq4NnD-134" value="7" style="ellipse;whiteSpace=wrap;html=1;aspect=fixed;fillColor=#000000;fontColor=#FFFFFF;" vertex="1" parent="1">
          <mxGeometry x="380" y="1690" width="40" height="40" as="geometry"/>
        </mxCell>
        <mxCell id="Y3cnyNxsgSKWZ6Iq4NnD-135" value="" style="ellipse;whiteSpace=wrap;html=1;aspect=fixed;fillColor=#000000;" vertex="1" parent="1">
          <mxGeometry x="190" y="1770" width="40" height="40" as="geometry"/>
        </mxCell>
        <mxCell id="Y3cnyNxsgSKWZ6Iq4NnD-136" value="" style="endArrow=none;html=1;exitX=0;exitY=1;exitDx=0;exitDy=0;entryX=1;entryY=0;entryDx=0;entryDy=0;" edge="1" parent="1" source="Y3cnyNxsgSKWZ6Iq4NnD-132" target="Y3cnyNxsgSKWZ6Iq4NnD-133">
          <mxGeometry width="50" height="50" relative="1" as="geometry">
            <mxPoint x="50" y="2010" as="sourcePoint"/>
            <mxPoint x="100" y="1960" as="targetPoint"/>
          </mxGeometry>
        </mxCell>
        <mxCell id="Y3cnyNxsgSKWZ6Iq4NnD-137" value="" style="endArrow=none;html=1;exitX=1;exitY=1;exitDx=0;exitDy=0;entryX=0;entryY=0;entryDx=0;entryDy=0;" edge="1" parent="1" source="Y3cnyNxsgSKWZ6Iq4NnD-133" target="Y3cnyNxsgSKWZ6Iq4NnD-135">
          <mxGeometry width="50" height="50" relative="1" as="geometry">
            <mxPoint x="160" y="1880" as="sourcePoint"/>
            <mxPoint x="180" y="2010" as="targetPoint"/>
          </mxGeometry>
        </mxCell>
        <mxCell id="Y3cnyNxsgSKWZ6Iq4NnD-138" value="1" style="text;html=1;strokeColor=none;fillColor=none;align=center;verticalAlign=middle;whiteSpace=wrap;rounded=0;fontColor=#FFFFFF;" vertex="1" parent="1">
          <mxGeometry x="115" y="1700" width="30" height="20" as="geometry"/>
        </mxCell>
        <mxCell id="Y3cnyNxsgSKWZ6Iq4NnD-139" value="2" style="text;html=1;strokeColor=none;fillColor=none;align=center;verticalAlign=middle;whiteSpace=wrap;rounded=0;fontColor=#FFFFFF;" vertex="1" parent="1">
          <mxGeometry x="200" y="1625" width="20" height="10" as="geometry"/>
        </mxCell>
        <mxCell id="Y3cnyNxsgSKWZ6Iq4NnD-140" value="4" style="text;html=1;strokeColor=none;fillColor=none;align=center;verticalAlign=middle;whiteSpace=wrap;rounded=0;fontColor=#FFFFFF;" vertex="1" parent="1">
          <mxGeometry x="200" y="1785" width="20" height="10" as="geometry"/>
        </mxCell>
        <mxCell id="Y3cnyNxsgSKWZ6Iq4NnD-141" value="&lt;font color=&quot;#ffffff&quot;&gt;3&lt;/font&gt;" style="ellipse;whiteSpace=wrap;html=1;aspect=fixed;fillColor=#000000;" vertex="1" parent="1">
          <mxGeometry x="210" y="1690" width="40" height="40" as="geometry"/>
        </mxCell>
        <mxCell id="Y3cnyNxsgSKWZ6Iq4NnD-142" value="5" style="ellipse;whiteSpace=wrap;html=1;aspect=fixed;fillColor=#000000;fontColor=#FFFFFF;" vertex="1" parent="1">
          <mxGeometry x="290" y="1650" width="40" height="40" as="geometry"/>
        </mxCell>
        <mxCell id="Y3cnyNxsgSKWZ6Iq4NnD-143" value="6" style="ellipse;whiteSpace=wrap;html=1;aspect=fixed;fillColor=#000000;fontColor=#FFFFFF;" vertex="1" parent="1">
          <mxGeometry x="290" y="1730" width="40" height="40" as="geometry"/>
        </mxCell>
        <mxCell id="Y3cnyNxsgSKWZ6Iq4NnD-144" value="" style="endArrow=none;html=1;entryX=0;entryY=1;entryDx=0;entryDy=0;" edge="1" parent="1" target="Y3cnyNxsgSKWZ6Iq4NnD-143">
          <mxGeometry width="50" height="50" relative="1" as="geometry">
            <mxPoint x="230" y="1788" as="sourcePoint"/>
            <mxPoint x="180" y="1880" as="targetPoint"/>
          </mxGeometry>
        </mxCell>
        <mxCell id="Y3cnyNxsgSKWZ6Iq4NnD-145" value="" style="endArrow=none;html=1;exitX=0.975;exitY=0.675;exitDx=0;exitDy=0;entryX=0.025;entryY=0.325;entryDx=0;entryDy=0;entryPerimeter=0;exitPerimeter=0;" edge="1" parent="1" source="Y3cnyNxsgSKWZ6Iq4NnD-142" target="Y3cnyNxsgSKWZ6Iq4NnD-134">
          <mxGeometry width="50" height="50" relative="1" as="geometry">
            <mxPoint x="110" y="1890" as="sourcePoint"/>
            <mxPoint x="160" y="1840" as="targetPoint"/>
          </mxGeometry>
        </mxCell>
        <mxCell id="Y3cnyNxsgSKWZ6Iq4NnD-146" value="" style="endArrow=none;html=1;exitX=0;exitY=1;exitDx=0;exitDy=0;entryX=1;entryY=0.5;entryDx=0;entryDy=0;" edge="1" parent="1" source="Y3cnyNxsgSKWZ6Iq4NnD-134" target="Y3cnyNxsgSKWZ6Iq4NnD-143">
          <mxGeometry width="50" height="50" relative="1" as="geometry">
            <mxPoint x="80" y="1920" as="sourcePoint"/>
            <mxPoint x="130" y="1870" as="targetPoint"/>
          </mxGeometry>
        </mxCell>
        <mxCell id="Y3cnyNxsgSKWZ6Iq4NnD-147" value="" style="endArrow=none;html=1;exitX=0;exitY=1;exitDx=0;exitDy=0;entryX=1;entryY=0.5;entryDx=0;entryDy=0;" edge="1" parent="1" source="Y3cnyNxsgSKWZ6Iq4NnD-142" target="Y3cnyNxsgSKWZ6Iq4NnD-141">
          <mxGeometry width="50" height="50" relative="1" as="geometry">
            <mxPoint x="160" y="1910" as="sourcePoint"/>
            <mxPoint x="210" y="1860" as="targetPoint"/>
          </mxGeometry>
        </mxCell>
        <mxCell id="Y3cnyNxsgSKWZ6Iq4NnD-148" value="" style="endArrow=none;html=1;entryX=0.05;entryY=0.35;entryDx=0;entryDy=0;entryPerimeter=0;" edge="1" parent="1" target="Y3cnyNxsgSKWZ6Iq4NnD-143">
          <mxGeometry width="50" height="50" relative="1" as="geometry">
            <mxPoint x="250" y="1718" as="sourcePoint"/>
            <mxPoint x="220" y="1870" as="targetPoint"/>
          </mxGeometry>
        </mxCell>
        <mxCell id="Y3cnyNxsgSKWZ6Iq4NnD-149" value="" style="endArrow=none;html=1;exitX=1;exitY=0.5;exitDx=0;exitDy=0;entryX=0;entryY=0.5;entryDx=0;entryDy=0;" edge="1" parent="1" source="Y3cnyNxsgSKWZ6Iq4NnD-133" target="Y3cnyNxsgSKWZ6Iq4NnD-141">
          <mxGeometry width="50" height="50" relative="1" as="geometry">
            <mxPoint x="50" y="1900" as="sourcePoint"/>
            <mxPoint x="100" y="1850" as="targetPoint"/>
          </mxGeometry>
        </mxCell>
        <mxCell id="Y3cnyNxsgSKWZ6Iq4NnD-150" value="" style="endArrow=none;html=1;entryX=0.025;entryY=0.325;entryDx=0;entryDy=0;entryPerimeter=0;exitX=0.95;exitY=0.675;exitDx=0;exitDy=0;exitPerimeter=0;" edge="1" parent="1" source="Y3cnyNxsgSKWZ6Iq4NnD-132" target="Y3cnyNxsgSKWZ6Iq4NnD-142">
          <mxGeometry width="50" height="50" relative="1" as="geometry">
            <mxPoint x="230" y="1640" as="sourcePoint"/>
            <mxPoint x="100" y="1850" as="targetPoint"/>
          </mxGeometry>
        </mxCell>
        <mxCell id="Y3cnyNxsgSKWZ6Iq4NnD-152" value="" style="endArrow=classic;html=1;" edge="1" parent="1">
          <mxGeometry width="50" height="50" relative="1" as="geometry">
            <mxPoint x="668" y="1790.5" as="sourcePoint"/>
            <mxPoint x="638" y="1790.5" as="targetPoint"/>
            <Array as="points">
              <mxPoint x="648" y="1790.5"/>
            </Array>
          </mxGeometry>
        </mxCell>
        <mxCell id="Y3cnyNxsgSKWZ6Iq4NnD-153" value="队首" style="text;html=1;strokeColor=none;fillColor=none;align=center;verticalAlign=middle;whiteSpace=wrap;rounded=0;" vertex="1" parent="1">
          <mxGeometry x="670" y="1780" width="40" height="20" as="geometry"/>
        </mxCell>
        <mxCell id="Y3cnyNxsgSKWZ6Iq4NnD-155" value="6" style="text;html=1;strokeColor=none;fillColor=none;align=center;verticalAlign=middle;whiteSpace=wrap;rounded=0;fontColor=#FFFFFF;fontSize=16;" vertex="1" parent="1">
          <mxGeometry x="592.5" y="1780" width="15" height="23" as="geometry"/>
        </mxCell>
        <mxCell id="Y3cnyNxsgSKWZ6Iq4NnD-160" value="" style="ellipse;whiteSpace=wrap;html=1;aspect=fixed;fillColor=#66B2FF;" vertex="1" parent="1">
          <mxGeometry x="191" y="120" width="40" height="40" as="geometry"/>
        </mxCell>
        <mxCell id="Y3cnyNxsgSKWZ6Iq4NnD-161" value="" style="ellipse;whiteSpace=wrap;html=1;aspect=fixed;fillColor=#66B2FF;" vertex="1" parent="1">
          <mxGeometry x="111" y="200" width="40" height="40" as="geometry"/>
        </mxCell>
        <mxCell id="Y3cnyNxsgSKWZ6Iq4NnD-162" value="7" style="ellipse;whiteSpace=wrap;html=1;aspect=fixed;fillColor=#66B2FF;fontColor=#FFFFFF;" vertex="1" parent="1">
          <mxGeometry x="381" y="200" width="40" height="40" as="geometry"/>
        </mxCell>
        <mxCell id="Y3cnyNxsgSKWZ6Iq4NnD-163" value="" style="ellipse;whiteSpace=wrap;html=1;aspect=fixed;fillColor=#66B2FF;" vertex="1" parent="1">
          <mxGeometry x="191" y="280" width="40" height="40" as="geometry"/>
        </mxCell>
        <mxCell id="Y3cnyNxsgSKWZ6Iq4NnD-164" value="" style="endArrow=none;html=1;exitX=0;exitY=1;exitDx=0;exitDy=0;entryX=1;entryY=0;entryDx=0;entryDy=0;" edge="1" parent="1" source="Y3cnyNxsgSKWZ6Iq4NnD-160" target="Y3cnyNxsgSKWZ6Iq4NnD-161">
          <mxGeometry width="50" height="50" relative="1" as="geometry">
            <mxPoint x="51" y="520" as="sourcePoint"/>
            <mxPoint x="101" y="470" as="targetPoint"/>
          </mxGeometry>
        </mxCell>
        <mxCell id="Y3cnyNxsgSKWZ6Iq4NnD-165" value="" style="endArrow=none;html=1;exitX=1;exitY=1;exitDx=0;exitDy=0;entryX=0;entryY=0;entryDx=0;entryDy=0;" edge="1" parent="1" source="Y3cnyNxsgSKWZ6Iq4NnD-161" target="Y3cnyNxsgSKWZ6Iq4NnD-163">
          <mxGeometry width="50" height="50" relative="1" as="geometry">
            <mxPoint x="161" y="390" as="sourcePoint"/>
            <mxPoint x="181" y="520" as="targetPoint"/>
          </mxGeometry>
        </mxCell>
        <mxCell id="Y3cnyNxsgSKWZ6Iq4NnD-166" value="1" style="text;html=1;strokeColor=none;fillColor=none;align=center;verticalAlign=middle;whiteSpace=wrap;rounded=0;fontColor=#FFFFFF;" vertex="1" parent="1">
          <mxGeometry x="116" y="210" width="30" height="20" as="geometry"/>
        </mxCell>
        <mxCell id="Y3cnyNxsgSKWZ6Iq4NnD-167" value="2" style="text;html=1;strokeColor=none;fillColor=none;align=center;verticalAlign=middle;whiteSpace=wrap;rounded=0;fontColor=#FFFFFF;" vertex="1" parent="1">
          <mxGeometry x="201" y="135" width="20" height="10" as="geometry"/>
        </mxCell>
        <mxCell id="Y3cnyNxsgSKWZ6Iq4NnD-168" value="4" style="text;html=1;strokeColor=none;fillColor=none;align=center;verticalAlign=middle;whiteSpace=wrap;rounded=0;fontColor=#FFFFFF;" vertex="1" parent="1">
          <mxGeometry x="191" y="290" width="40" height="20" as="geometry"/>
        </mxCell>
        <mxCell id="Y3cnyNxsgSKWZ6Iq4NnD-169" value="&lt;font color=&quot;#ffffff&quot;&gt;3&lt;/font&gt;" style="ellipse;whiteSpace=wrap;html=1;aspect=fixed;fillColor=#66B2FF;" vertex="1" parent="1">
          <mxGeometry x="211" y="200" width="40" height="40" as="geometry"/>
        </mxCell>
        <mxCell id="Y3cnyNxsgSKWZ6Iq4NnD-170" value="5" style="ellipse;whiteSpace=wrap;html=1;aspect=fixed;fillColor=#66B2FF;fontColor=#FFFFFF;" vertex="1" parent="1">
          <mxGeometry x="291" y="160" width="40" height="40" as="geometry"/>
        </mxCell>
        <mxCell id="Y3cnyNxsgSKWZ6Iq4NnD-171" value="6" style="ellipse;whiteSpace=wrap;html=1;aspect=fixed;fillColor=#66B2FF;fontColor=#FFFFFF;" vertex="1" parent="1">
          <mxGeometry x="291" y="240" width="40" height="40" as="geometry"/>
        </mxCell>
        <mxCell id="Y3cnyNxsgSKWZ6Iq4NnD-172" value="" style="endArrow=none;html=1;exitX=1;exitY=0.25;exitDx=0;exitDy=0;entryX=0;entryY=1;entryDx=0;entryDy=0;" edge="1" parent="1" source="Y3cnyNxsgSKWZ6Iq4NnD-168" target="Y3cnyNxsgSKWZ6Iq4NnD-171">
          <mxGeometry width="50" height="50" relative="1" as="geometry">
            <mxPoint x="131" y="440" as="sourcePoint"/>
            <mxPoint x="181" y="390" as="targetPoint"/>
          </mxGeometry>
        </mxCell>
        <mxCell id="Y3cnyNxsgSKWZ6Iq4NnD-173" value="" style="endArrow=none;html=1;exitX=0.975;exitY=0.675;exitDx=0;exitDy=0;entryX=0.025;entryY=0.325;entryDx=0;entryDy=0;entryPerimeter=0;exitPerimeter=0;" edge="1" parent="1" source="Y3cnyNxsgSKWZ6Iq4NnD-170" target="Y3cnyNxsgSKWZ6Iq4NnD-162">
          <mxGeometry width="50" height="50" relative="1" as="geometry">
            <mxPoint x="111" y="400" as="sourcePoint"/>
            <mxPoint x="161" y="350" as="targetPoint"/>
          </mxGeometry>
        </mxCell>
        <mxCell id="Y3cnyNxsgSKWZ6Iq4NnD-174" value="" style="endArrow=none;html=1;exitX=0;exitY=1;exitDx=0;exitDy=0;entryX=1;entryY=0.5;entryDx=0;entryDy=0;" edge="1" parent="1" source="Y3cnyNxsgSKWZ6Iq4NnD-162" target="Y3cnyNxsgSKWZ6Iq4NnD-171">
          <mxGeometry width="50" height="50" relative="1" as="geometry">
            <mxPoint x="81" y="430" as="sourcePoint"/>
            <mxPoint x="131" y="380" as="targetPoint"/>
          </mxGeometry>
        </mxCell>
        <mxCell id="Y3cnyNxsgSKWZ6Iq4NnD-175" value="" style="endArrow=none;html=1;exitX=0;exitY=1;exitDx=0;exitDy=0;entryX=1;entryY=0.5;entryDx=0;entryDy=0;" edge="1" parent="1" source="Y3cnyNxsgSKWZ6Iq4NnD-170" target="Y3cnyNxsgSKWZ6Iq4NnD-169">
          <mxGeometry width="50" height="50" relative="1" as="geometry">
            <mxPoint x="161" y="420" as="sourcePoint"/>
            <mxPoint x="211" y="370" as="targetPoint"/>
          </mxGeometry>
        </mxCell>
        <mxCell id="Y3cnyNxsgSKWZ6Iq4NnD-176" value="" style="endArrow=none;html=1;entryX=0.05;entryY=0.35;entryDx=0;entryDy=0;entryPerimeter=0;" edge="1" parent="1" target="Y3cnyNxsgSKWZ6Iq4NnD-171">
          <mxGeometry width="50" height="50" relative="1" as="geometry">
            <mxPoint x="251" y="228" as="sourcePoint"/>
            <mxPoint x="221" y="380" as="targetPoint"/>
          </mxGeometry>
        </mxCell>
        <mxCell id="Y3cnyNxsgSKWZ6Iq4NnD-177" value="" style="endArrow=none;html=1;exitX=1;exitY=0.5;exitDx=0;exitDy=0;entryX=0;entryY=0.5;entryDx=0;entryDy=0;" edge="1" parent="1" source="Y3cnyNxsgSKWZ6Iq4NnD-161" target="Y3cnyNxsgSKWZ6Iq4NnD-169">
          <mxGeometry width="50" height="50" relative="1" as="geometry">
            <mxPoint x="51" y="410" as="sourcePoint"/>
            <mxPoint x="101" y="360" as="targetPoint"/>
          </mxGeometry>
        </mxCell>
        <mxCell id="Y3cnyNxsgSKWZ6Iq4NnD-178" value="" style="endArrow=none;html=1;entryX=0.025;entryY=0.325;entryDx=0;entryDy=0;entryPerimeter=0;exitX=0.95;exitY=0.675;exitDx=0;exitDy=0;exitPerimeter=0;" edge="1" parent="1" source="Y3cnyNxsgSKWZ6Iq4NnD-160" target="Y3cnyNxsgSKWZ6Iq4NnD-170">
          <mxGeometry width="50" height="50" relative="1" as="geometry">
            <mxPoint x="231" y="150" as="sourcePoint"/>
            <mxPoint x="101" y="360" as="targetPoint"/>
          </mxGeometry>
        </mxCell>
        <mxCell id="Y3cnyNxsgSKWZ6Iq4NnD-179" value="" style="rounded=1;whiteSpace=wrap;html=1;fillColor=#66B2FF;" vertex="1" parent="1">
          <mxGeometry x="581" y="125" width="50" height="190" as="geometry"/>
        </mxCell>
        <mxCell id="Y3cnyNxsgSKWZ6Iq4NnD-180" value="" style="endArrow=none;html=1;exitX=1;exitY=0.5;exitDx=0;exitDy=0;entryX=0;entryY=0.5;entryDx=0;entryDy=0;" edge="1" parent="1" source="Y3cnyNxsgSKWZ6Iq4NnD-179" target="Y3cnyNxsgSKWZ6Iq4NnD-179">
          <mxGeometry width="50" height="50" relative="1" as="geometry">
            <mxPoint x="491" y="342" as="sourcePoint"/>
            <mxPoint x="581" y="287" as="targetPoint"/>
          </mxGeometry>
        </mxCell>
        <mxCell id="Y3cnyNxsgSKWZ6Iq4NnD-181" value="" style="endArrow=none;html=1;exitX=1;exitY=0.25;exitDx=0;exitDy=0;entryX=0;entryY=0.25;entryDx=0;entryDy=0;" edge="1" parent="1" source="Y3cnyNxsgSKWZ6Iq4NnD-179" target="Y3cnyNxsgSKWZ6Iq4NnD-179">
          <mxGeometry width="50" height="50" relative="1" as="geometry">
            <mxPoint x="471" y="332" as="sourcePoint"/>
            <mxPoint x="521" y="282" as="targetPoint"/>
          </mxGeometry>
        </mxCell>
        <mxCell id="Y3cnyNxsgSKWZ6Iq4NnD-182" value="" style="endArrow=none;html=1;exitX=1;exitY=0.75;exitDx=0;exitDy=0;entryX=0;entryY=0.75;entryDx=0;entryDy=0;" edge="1" parent="1" source="Y3cnyNxsgSKWZ6Iq4NnD-179" target="Y3cnyNxsgSKWZ6Iq4NnD-179">
          <mxGeometry width="50" height="50" relative="1" as="geometry">
            <mxPoint x="471" y="372" as="sourcePoint"/>
            <mxPoint x="521" y="322" as="targetPoint"/>
          </mxGeometry>
        </mxCell>
        <mxCell id="Y3cnyNxsgSKWZ6Iq4NnD-184" value="" style="endArrow=classic;html=1;" edge="1" parent="1">
          <mxGeometry width="50" height="50" relative="1" as="geometry">
            <mxPoint x="669" y="292.5" as="sourcePoint"/>
            <mxPoint x="639" y="292.5" as="targetPoint"/>
            <Array as="points">
              <mxPoint x="649" y="292.5"/>
            </Array>
          </mxGeometry>
        </mxCell>
        <mxCell id="Y3cnyNxsgSKWZ6Iq4NnD-185" value="队首" style="text;html=1;strokeColor=none;fillColor=none;align=center;verticalAlign=middle;whiteSpace=wrap;rounded=0;" vertex="1" parent="1">
          <mxGeometry x="671" y="282" width="40" height="20" as="geometry"/>
        </mxCell>
      </root>
    </mxGraphModel>
  </diagram>
</mxfile>
